<?xml version="1.0" encoding="UTF-8"?>
<svg xmlns="http://www.w3.org/2000/svg" xmlns:xlink="http://www.w3.org/1999/xlink" width="250px" height="167px" viewBox="0 0 250 167" version="1.1">
<g id="surface1">
<path style=" stroke:none;fill-rule:nonzero;fill:rgb(0%,0%,0%);fill-opacity:1;" d="M 58.917969 65.714844 C 58 66.632812 58.25 79.324219 59.167969 79.324219 C 59.667969 79.324219 60 76.570312 60 72.726562 L 60 66.046875 L 64 65.714844 L 67.917969 65.464844 L 63.667969 65.296875 C 61.332031 65.214844 59.167969 65.378906 58.917969 65.714844 Z M 58.917969 65.714844 "/>
<path style=" stroke:none;fill-rule:nonzero;fill:rgb(0%,0%,0%);fill-opacity:1;" d="M 77.082031 80.328125 L 77.082031 95.609375 L 88.167969 95.609375 L 99.167969 95.691406 L 88.332031 95.441406 L 77.5 95.105469 L 77.25 80.160156 L 77 65.128906 Z M 77.082031 80.328125 "/>
<path style=" stroke:none;fill-rule:nonzero;fill:rgb(0%,0%,0%);fill-opacity:1;" d="M 79.5 79.742188 C 79.5 88.007812 79.667969 91.265625 79.75 87.007812 C 79.917969 82.75 79.917969 75.984375 79.75 71.976562 C 79.667969 67.96875 79.5 71.476562 79.5 79.742188 Z M 79.5 79.742188 "/>
<path style=" stroke:none;fill-rule:nonzero;fill:rgb(0%,0%,0%);fill-opacity:1;" d="M 81.167969 79.742188 C 81.167969 88.007812 81.332031 91.265625 81.417969 87.007812 C 81.582031 82.75 81.582031 75.984375 81.417969 71.976562 C 81.332031 67.96875 81.167969 71.476562 81.167969 79.742188 Z M 81.167969 79.742188 "/>
<path style=" stroke:none;fill-rule:nonzero;fill:rgb(0%,0%,0%);fill-opacity:1;" d="M 83.667969 79.742188 C 83.667969 88.007812 83.832031 91.265625 83.917969 87.007812 C 84.082031 82.75 84.082031 75.984375 83.917969 71.976562 C 83.832031 67.96875 83.667969 71.476562 83.667969 79.742188 Z M 83.667969 79.742188 "/>
<path style=" stroke:none;fill-rule:nonzero;fill:rgb(0%,0%,0%);fill-opacity:1;" d="M 129.332031 68.71875 L 125.832031 72.3125 L 125.832031 102.789062 L 137.332031 102.539062 L 148.75 102.289062 L 148.5 87.257812 L 148.167969 72.226562 L 144.75 68.636719 C 141.582031 65.378906 141 65.128906 137.082031 65.128906 C 133.167969 65.128906 132.582031 65.464844 129.332031 68.71875 Z M 144 69.554688 L 147.5 73.144531 L 147.5 101.871094 L 126.667969 101.871094 L 126.667969 73.144531 L 130.167969 69.554688 C 133.167969 66.464844 134.167969 65.964844 137.082031 65.964844 C 140 65.964844 141 66.464844 144 69.554688 Z M 144 69.554688 "/>
<path style=" stroke:none;fill-rule:nonzero;fill:rgb(0%,0%,0%);fill-opacity:1;" d="M 132.75 75.902344 C 130 77.65625 127.5 81.496094 127.5 83.917969 C 127.5 86.589844 130.25 91.097656 132.582031 92.265625 C 133.832031 92.933594 136.332031 93.4375 138.082031 93.4375 C 141.25 93.351562 141.25 93.351562 138.75 92.683594 L 136.25 92.015625 L 139 91.933594 C 142.5 91.851562 146.667969 87.925781 146.667969 84.753906 C 146.667969 81.496094 144.417969 77.738281 142.082031 77.152344 C 141 76.902344 140.167969 76.234375 140.25 75.652344 C 140.582031 74.066406 135.582031 74.230469 132.75 75.902344 Z M 137.082031 76.820312 C 136.832031 77.320312 137.5 77.65625 138.582031 77.65625 C 141.417969 77.65625 144.082031 80.078125 144.667969 83.082031 C 145.332031 86.589844 142.582031 89.847656 138.082031 91.097656 C 134.75 92.015625 134.582031 91.933594 132.25 89.34375 C 130.167969 87.007812 129.917969 86.089844 130.25 83.164062 C 130.582031 80.910156 131.5 79.074219 132.917969 77.90625 C 135.082031 75.984375 138.082031 75.234375 137.082031 76.820312 Z M 137.082031 76.820312 "/>
<path style=" stroke:none;fill-rule:nonzero;fill:rgb(0%,0%,0%);fill-opacity:1;" d="M 135.417969 83.25 C 134.5 85.003906 133.667969 86.671875 133.5 87.007812 C 133.332031 87.425781 133.5 87.675781 134 87.675781 C 134.417969 87.675781 135.167969 86.671875 135.75 85.421875 C 136.75 83.164062 136.832031 83.164062 138 84.667969 C 138.582031 85.503906 139.25 86.671875 139.417969 87.175781 C 139.582031 87.675781 140 87.84375 140.332031 87.507812 C 140.832031 87.089844 137.917969 80.160156 137.25 80.160156 C 137.082031 80.160156 136.25 81.578125 135.417969 83.25 Z M 135.417969 83.25 "/>
<path style=" stroke:none;fill-rule:nonzero;fill:rgb(0%,0%,0%);fill-opacity:1;" d="M 157.417969 65.296875 C 156.917969 67.800781 157.082031 93.6875 157.582031 94.019531 C 158 94.273438 158.332031 88.257812 158.332031 80.242188 L 158.332031 66.046875 L 162.332031 65.714844 L 166.25 65.464844 L 161.917969 65.296875 C 159.5 65.214844 157.5 65.214844 157.417969 65.296875 Z M 157.417969 65.296875 "/>
<path style=" stroke:none;fill-rule:nonzero;fill:rgb(0%,0%,0%);fill-opacity:1;" d="M 182.25 65.632812 C 181.417969 66.464844 181.5 102.703125 182.332031 102.703125 C 182.667969 102.703125 182.832031 94.523438 182.667969 84.585938 L 182.417969 66.382812 L 185.832031 69.722656 C 187.667969 71.476562 189.167969 72.644531 189.167969 72.144531 C 189.167969 70.890625 182.917969 65.046875 182.25 65.632812 Z M 182.25 65.632812 "/>
<path style=" stroke:none;fill-rule:nonzero;fill:rgb(0%,0%,0%);fill-opacity:1;" d="M 190 83.917969 C 190 95.859375 190.332031 102.703125 190.832031 102.703125 C 191.332031 102.703125 191.667969 95.859375 191.667969 83.917969 C 191.667969 71.976562 191.332031 65.128906 190.832031 65.128906 C 190.332031 65.128906 190 71.976562 190 83.917969 Z M 190 83.917969 "/>
<path style=" stroke:none;fill-rule:nonzero;fill:rgb(0%,0%,0%);fill-opacity:1;" d="M 192.832031 83.917969 C 192.832031 94.4375 193 98.695312 193.082031 93.269531 C 193.25 87.84375 193.25 79.242188 193.082031 74.066406 C 193 68.886719 192.832031 73.3125 192.832031 83.917969 Z M 192.832031 83.917969 "/>
<path style=" stroke:none;fill-rule:nonzero;fill:rgb(0%,0%,0%);fill-opacity:1;" d="M 194.167969 83.917969 C 194.167969 95.859375 194.5 102.703125 195 102.703125 C 195.5 102.703125 195.832031 95.859375 195.832031 83.917969 C 195.832031 71.976562 195.5 65.128906 195 65.128906 C 194.5 65.128906 194.167969 71.976562 194.167969 83.917969 Z M 194.167969 83.917969 "/>
<path style=" stroke:none;fill-rule:nonzero;fill:rgb(0%,0%,0%);fill-opacity:1;" d="M 197 83.917969 C 197 94.4375 197.167969 98.695312 197.25 93.269531 C 197.417969 87.84375 197.417969 79.242188 197.25 74.066406 C 197.167969 68.886719 197 73.3125 197 83.917969 Z M 197 83.917969 "/>
<path style=" stroke:none;fill-rule:nonzero;fill:rgb(0%,0%,0%);fill-opacity:1;" d="M 60.832031 67.636719 C 60.832031 68.050781 62.917969 68.46875 65.5 68.46875 C 68.332031 68.46875 69.917969 68.136719 69.582031 67.636719 C 69.332031 67.132812 67.25 66.800781 64.917969 66.800781 C 62.667969 66.800781 60.832031 67.132812 60.832031 67.636719 Z M 60.832031 67.636719 "/>
<path style=" stroke:none;fill-rule:nonzero;fill:rgb(0%,0%,0%);fill-opacity:1;" d="M 101.667969 67.636719 C 101.667969 68.136719 103.917969 68.46875 106.75 68.46875 C 109.832031 68.46875 111.582031 68.136719 111.25 67.636719 C 111 67.132812 108.667969 66.800781 106.167969 66.800781 C 103.667969 66.800781 101.667969 67.132812 101.667969 67.636719 Z M 101.667969 67.636719 "/>
<path style=" stroke:none;fill-rule:nonzero;fill:rgb(0%,0%,0%);fill-opacity:1;" d="M 116.667969 67.636719 C 116.667969 68.050781 118.417969 68.46875 120.5 68.46875 C 122.75 68.46875 124.082031 68.136719 123.75 67.636719 C 123.5 67.132812 121.75 66.800781 119.917969 66.800781 C 118.167969 66.800781 116.667969 67.132812 116.667969 67.636719 Z M 116.667969 67.636719 "/>
<path style=" stroke:none;fill-rule:nonzero;fill:rgb(0%,0%,0%);fill-opacity:1;" d="M 159.167969 67.636719 C 159.167969 68.050781 161.25 68.46875 163.832031 68.46875 C 166.667969 68.46875 168.25 68.136719 167.917969 67.636719 C 167.667969 67.132812 165.582031 66.800781 163.25 66.800781 C 161 66.800781 159.167969 67.132812 159.167969 67.636719 Z M 159.167969 67.636719 "/>
<path style=" stroke:none;fill-rule:nonzero;fill:rgb(0%,0%,0%);fill-opacity:1;" d="M 56.917969 73.480469 C 56.917969 76.902344 57.082031 78.324219 57.25 76.570312 C 57.417969 74.898438 57.417969 72.058594 57.25 70.308594 C 57.082031 68.636719 56.917969 70.054688 56.917969 73.480469 Z M 56.917969 73.480469 "/>
<path style=" stroke:none;fill-rule:nonzero;fill:rgb(0%,0%,0%);fill-opacity:1;" d="M 155.332031 80.996094 C 155.332031 88.59375 155.5 91.683594 155.582031 87.84375 C 155.75 84.085938 155.75 77.90625 155.582031 74.066406 C 155.5 70.308594 155.332031 73.398438 155.332031 80.996094 Z M 155.332031 80.996094 "/>
<path style=" stroke:none;fill-rule:nonzero;fill:rgb(0%,0%,0%);fill-opacity:1;" d="M 179.917969 68.21875 C 179.5 72.894531 179.75 102.703125 180.25 102.703125 C 180.582031 102.703125 180.832031 94.855469 180.832031 85.171875 C 180.832031 75.484375 180.667969 67.636719 180.417969 67.636719 C 180.167969 67.636719 180 67.886719 179.917969 68.21875 Z M 179.917969 68.21875 "/>
<path style=" stroke:none;fill-rule:nonzero;fill:rgb(0%,0%,0%);fill-opacity:1;" d="M 63.082031 69.890625 C 64.582031 70.054688 67.25 70.054688 68.917969 69.890625 C 70.667969 69.722656 69.5 69.554688 66.25 69.554688 C 63.082031 69.554688 61.667969 69.722656 63.082031 69.890625 Z M 63.082031 69.890625 "/>
<path style=" stroke:none;fill-rule:nonzero;fill:rgb(0%,0%,0%);fill-opacity:1;" d="M 104 69.890625 C 105.917969 70.054688 108.917969 70.054688 110.667969 69.890625 C 112.332031 69.722656 110.75 69.554688 107.082031 69.554688 C 103.417969 69.554688 102 69.722656 104 69.890625 Z M 104 69.890625 "/>
<path style=" stroke:none;fill-rule:nonzero;fill:rgb(0%,0%,0%);fill-opacity:1;" d="M 161.917969 69.890625 C 163.582031 70.054688 166.417969 70.054688 168.167969 69.890625 C 169.832031 69.722656 168.417969 69.554688 165 69.554688 C 161.582031 69.554688 160.167969 69.722656 161.917969 69.890625 Z M 161.917969 69.890625 "/>
<path style=" stroke:none;fill-rule:nonzero;fill:rgb(0%,0%,0%);fill-opacity:1;" d="M 54.417969 74.734375 C 54.417969 77.488281 54.582031 78.488281 54.75 76.988281 C 54.917969 75.484375 54.917969 73.230469 54.75 71.976562 C 54.582031 70.722656 54.417969 71.976562 54.417969 74.734375 Z M 54.417969 74.734375 "/>
<path style=" stroke:none;fill-rule:nonzero;fill:rgb(0%,0%,0%);fill-opacity:1;" d="M 152.667969 82.414062 C 152.832031 94.855469 153.082031 93.351562 153.5 78.238281 C 153.667969 73.8125 153.5 70.140625 153.167969 70.140625 C 152.75 70.140625 152.582031 75.652344 152.667969 82.414062 Z M 152.667969 82.414062 "/>
<path style=" stroke:none;fill-rule:nonzero;fill:rgb(0%,0%,0%);fill-opacity:1;" d="M 177.832031 86.421875 C 177.832031 95.609375 178 99.449219 178.082031 95.023438 C 178.25 90.597656 178.25 83.082031 178.082031 78.324219 C 178 73.5625 177.832031 77.238281 177.832031 86.421875 Z M 177.832031 86.421875 "/>
<path style=" stroke:none;fill-rule:nonzero;fill:rgb(0%,0%,0%);fill-opacity:1;" d="M 184.5 71.390625 C 184.75 72.058594 184.5 72.644531 184 72.644531 C 183.417969 72.644531 184.25 73.980469 185.832031 75.566406 C 187.332031 77.152344 188.832031 78.238281 189.082031 78.074219 C 189.25 77.820312 188.417969 76.484375 187.082031 75.148438 C 184.5 72.476562 185 71.726562 187.832031 74.066406 C 188.832031 74.898438 188.5 74.316406 187.167969 72.8125 C 184.417969 69.890625 183.75 69.472656 184.5 71.390625 Z M 184.5 71.390625 "/>
<path style=" stroke:none;fill-rule:nonzero;fill:rgb(0%,0%,0%);fill-opacity:1;" d="M 52.25 72.726562 C 51.832031 73.480469 51.667969 75.566406 51.832031 77.320312 L 52.082031 80.578125 L 67.082031 81.414062 L 67 92.015625 C 67 97.945312 67.25 102.703125 67.667969 102.703125 C 68.082031 102.703125 68.25 96.023438 68.167969 87.84375 C 68.082031 79.742188 67.832031 74.648438 67.667969 76.570312 L 67.417969 80.160156 L 53.417969 80.160156 L 53.167969 75.734375 C 53 72.894531 52.667969 71.894531 52.25 72.726562 Z M 52.25 72.726562 "/>
<path style=" stroke:none;fill-rule:nonzero;fill:rgb(0%,0%,0%);fill-opacity:1;" d="M 66.917969 72.394531 L 73.332031 72.726562 L 73.332031 76.402344 C 73.332031 78.488281 73.75 80.160156 74.25 80.160156 C 74.75 80.160156 75 78.574219 74.832031 76.152344 L 74.582031 72.226562 L 67.5 72.144531 L 60.417969 72.144531 Z M 66.917969 72.394531 "/>
<path style=" stroke:none;fill-rule:nonzero;fill:rgb(0%,0%,0%);fill-opacity:1;" d="M 107.75 72.394531 L 115 72.726562 L 115 87.675781 C 115 97.109375 115.332031 102.703125 115.832031 102.703125 C 116.332031 102.703125 116.667969 97.195312 116.667969 87.757812 L 116.667969 72.726562 L 120.667969 72.394531 C 122.832031 72.226562 119.167969 72.144531 112.5 72.144531 C 105.832031 72.144531 103.667969 72.3125 107.75 72.394531 Z M 107.75 72.394531 "/>
<path style=" stroke:none;fill-rule:nonzero;fill:rgb(0%,0%,0%);fill-opacity:1;" d="M 151 83.667969 L 150.832031 96.023438 L 158.167969 95.859375 L 165.417969 95.691406 L 158.582031 95.441406 L 151.75 95.105469 L 151.417969 83.25 L 151.167969 71.390625 Z M 151 83.667969 "/>
<path style=" stroke:none;fill-rule:nonzero;fill:rgb(0%,0%,0%);fill-opacity:1;" d="M 165.25 72.394531 L 171.667969 72.726562 L 171.667969 84.503906 C 171.667969 92.683594 171.917969 96.109375 172.5 95.523438 C 173.082031 94.941406 173.332031 90.347656 173.167969 83.417969 L 172.917969 72.226562 L 165.832031 72.144531 L 158.75 72.144531 Z M 165.25 72.394531 "/>
<path style=" stroke:none;fill-rule:nonzero;fill:rgb(0%,0%,0%);fill-opacity:1;" d="M 175.332031 87.675781 C 175.332031 96.191406 175.5 99.617188 175.582031 95.355469 C 175.75 91.183594 175.75 84.167969 175.582031 79.910156 C 175.5 75.734375 175.332031 79.15625 175.332031 87.675781 Z M 175.332031 87.675781 "/>
<path style=" stroke:none;fill-rule:nonzero;fill:rgb(0%,0%,0%);fill-opacity:1;" d="M 109.167969 87.675781 C 108.917969 95.691406 108.832031 102.453125 109 102.621094 C 109.832031 104.039062 110 100.199219 109.832031 87.589844 L 109.582031 73.0625 Z M 109.167969 87.675781 "/>
<path style=" stroke:none;fill-rule:nonzero;fill:rgb(0%,0%,0%);fill-opacity:1;" d="M 111.167969 88.09375 C 111.167969 96.359375 111.332031 99.617188 111.417969 95.355469 C 111.582031 91.097656 111.582031 84.335938 111.417969 80.328125 C 111.332031 76.320312 111.167969 79.824219 111.167969 88.09375 Z M 111.167969 88.09375 "/>
<path style=" stroke:none;fill-rule:nonzero;fill:rgb(0%,0%,0%);fill-opacity:1;" d="M 113.667969 88.09375 C 113.667969 96.359375 113.832031 99.617188 113.917969 95.355469 C 114.082031 91.097656 114.082031 84.335938 113.917969 80.328125 C 113.832031 76.320312 113.667969 79.824219 113.667969 88.09375 Z M 113.667969 88.09375 "/>
<path style=" stroke:none;fill-rule:nonzero;fill:rgb(0%,0%,0%);fill-opacity:1;" d="M 166 87.007812 L 165.832031 101.035156 L 163.75 101.535156 C 162.582031 101.785156 160.75 101.785156 159.582031 101.535156 C 158.417969 101.203125 157.5 101.367188 157.5 101.871094 C 157.5 103.121094 165.832031 102.957031 166.332031 101.621094 C 166.5 101.035156 166.582031 94.355469 166.417969 86.839844 L 166.167969 73.0625 Z M 166 87.007812 "/>
<path style=" stroke:none;fill-rule:nonzero;fill:rgb(0%,0%,0%);fill-opacity:1;" d="M 167.5 87.007812 C 167.5 94.4375 167.75 100.199219 168 99.949219 C 168.75 99.199219 168.917969 73.480469 168.167969 73.480469 C 167.75 73.480469 167.5 79.574219 167.5 87.007812 Z M 167.5 87.007812 "/>
<path style=" stroke:none;fill-rule:nonzero;fill:rgb(0%,0%,0%);fill-opacity:1;" d="M 170.332031 85.585938 C 170.332031 92.433594 170.5 95.191406 170.582031 91.597656 C 170.75 88.007812 170.75 82.414062 170.582031 79.074219 C 170.5 75.734375 170.332031 78.65625 170.332031 85.585938 Z M 170.332031 85.585938 "/>
<path style=" stroke:none;fill-rule:nonzero;fill:rgb(0%,0%,0%);fill-opacity:1;" d="M 57.25 83.25 C 58.75 83.417969 61.417969 83.417969 63.082031 83.25 C 64.832031 83.082031 63.667969 82.914062 60.417969 82.914062 C 57.25 82.914062 55.832031 83.082031 57.25 83.25 Z M 57.25 83.25 "/>
<path style=" stroke:none;fill-rule:nonzero;fill:rgb(0%,0%,0%);fill-opacity:1;" d="M 69.5 92.683594 C 69.5 98.445312 69.582031 100.785156 69.75 97.863281 C 69.917969 95.023438 69.917969 90.347656 69.75 87.425781 C 69.582031 84.585938 69.5 86.921875 69.5 92.683594 Z M 69.5 92.683594 "/>
<path style=" stroke:none;fill-rule:nonzero;fill:rgb(0%,0%,0%);fill-opacity:1;" d="M 59 84.917969 C 60.5 85.085938 62.75 85.085938 64 84.917969 C 65.25 84.753906 64 84.585938 61.25 84.585938 C 58.5 84.585938 57.5 84.753906 59 84.917969 Z M 59 84.917969 "/>
<path style=" stroke:none;fill-rule:nonzero;fill:rgb(0%,0%,0%);fill-opacity:1;" d="M 72 93.9375 C 72 98.949219 72.082031 100.953125 72.25 98.28125 C 72.417969 95.609375 72.417969 91.515625 72.25 89.09375 C 72.082031 86.671875 72 88.84375 72 93.9375 Z M 72 93.9375 "/>
<path style=" stroke:none;fill-rule:nonzero;fill:rgb(0%,0%,0%);fill-opacity:1;" d="M 58.917969 87.425781 C 58 88.34375 58.25 102.703125 59.167969 102.703125 C 59.667969 102.703125 60 99.699219 60 95.273438 L 60 87.757812 L 63.582031 87.425781 L 67.082031 87.089844 L 63.25 87.007812 C 61.167969 86.921875 59.167969 87.089844 58.917969 87.425781 Z M 58.917969 87.425781 "/>
<path style=" stroke:none;fill-rule:nonzero;fill:rgb(0%,0%,0%);fill-opacity:1;" d="M 73.332031 94.6875 C 73.332031 99.449219 73.667969 102.703125 74.167969 102.703125 C 74.667969 102.703125 75 99.699219 75 95.273438 C 75 91.097656 74.667969 87.507812 74.167969 87.257812 C 73.667969 86.921875 73.332031 89.59375 73.332031 94.6875 Z M 73.332031 94.6875 "/>
<path style=" stroke:none;fill-rule:nonzero;fill:rgb(0%,0%,0%);fill-opacity:1;" d="M 51.667969 95.191406 C 51.667969 99.617188 52 102.703125 52.5 102.703125 C 53 102.703125 53.332031 99.617188 53.332031 95.191406 C 53.332031 90.765625 53 87.675781 52.5 87.675781 C 52 87.675781 51.667969 90.765625 51.667969 95.191406 Z M 51.667969 95.191406 "/>
<path style=" stroke:none;fill-rule:nonzero;fill:rgb(0%,0%,0%);fill-opacity:1;" d="M 54.5 95.191406 C 54.5 99.53125 54.582031 101.367188 54.75 99.113281 C 54.917969 96.945312 54.917969 93.4375 54.75 91.183594 C 54.582031 89.011719 54.5 90.847656 54.5 95.191406 Z M 54.5 95.191406 "/>
<path style=" stroke:none;fill-rule:nonzero;fill:rgb(0%,0%,0%);fill-opacity:1;" d="M 57 95.191406 C 57 99.53125 57.082031 101.367188 57.25 99.113281 C 57.417969 96.945312 57.417969 93.4375 57.25 91.183594 C 57.082031 89.011719 57 90.847656 57 95.191406 Z M 57 95.191406 "/>
<path style=" stroke:none;fill-rule:nonzero;fill:rgb(0%,0%,0%);fill-opacity:1;" d="M 79.167969 97.863281 C 79.167969 98.28125 83.667969 98.53125 89.167969 98.53125 C 94.667969 98.53125 99.167969 98.28125 99.167969 97.863281 C 99.167969 97.527344 94.667969 97.277344 89.167969 97.277344 C 83.667969 97.277344 79.167969 97.527344 79.167969 97.863281 Z M 79.167969 97.863281 "/>
<path style=" stroke:none;fill-rule:nonzero;fill:rgb(0%,0%,0%);fill-opacity:1;" d="M 153.332031 97.863281 C 153.332031 98.195312 155.832031 98.53125 159 98.445312 C 165.417969 98.363281 165.082031 97.945312 158.167969 97.445312 C 155.5 97.277344 153.332031 97.445312 153.332031 97.863281 Z M 153.332031 97.863281 "/>
<path style=" stroke:none;fill-rule:nonzero;fill:rgb(0%,0%,0%);fill-opacity:1;" d="M 86.082031 99.949219 C 88.75 100.117188 92.832031 100.117188 95.25 99.949219 C 97.667969 99.78125 95.5 99.699219 90.417969 99.699219 C 85.417969 99.699219 83.417969 99.78125 86.082031 99.949219 Z M 86.082031 99.949219 "/>
<path style=" stroke:none;fill-rule:nonzero;fill:rgb(0%,0%,0%);fill-opacity:1;" d="M 155.332031 99.949219 C 155.917969 100.535156 164.332031 100.367188 164.917969 99.699219 C 165.082031 99.53125 162.917969 99.363281 160 99.363281 C 157.082031 99.363281 155 99.617188 155.332031 99.949219 Z M 155.332031 99.949219 "/>
<path style=" stroke:none;fill-rule:nonzero;fill:rgb(0%,0%,0%);fill-opacity:1;" d="M 83.332031 102.035156 C 83.332031 102.453125 86.917969 102.703125 91.25 102.703125 C 95.582031 102.703125 99.167969 102.453125 99.167969 102.035156 C 99.167969 101.703125 95.582031 101.453125 91.25 101.453125 C 86.917969 101.453125 83.332031 101.703125 83.332031 102.035156 Z M 83.332031 102.035156 "/>
</g>
</svg>
